<?xml version="1.0" standalone="no"?>
<!DOCTYPE svg PUBLIC "-//W3C//DTD SVG 20010904//EN"
 "http://www.w3.org/TR/2001/REC-SVG-20010904/DTD/svg10.dtd">
<svg version="1.0" xmlns="http://www.w3.org/2000/svg"
 width="512.000000pt" height="512.000000pt" viewBox="0 0 512.000000 512.000000"
 preserveAspectRatio="xMidYMid meet">
<metadata>
Created by potrace 1.11, written by Peter Selinger 2001-2013
</metadata>
<g transform="translate(0.000000,512.000000) scale(0.100000,-0.100000)"
fill="#000000" stroke="none">
<path d="M2487 4694 c-1 -1 -40 -4 -87 -8 -114 -8 -184 -18 -267 -37 -27 -6
-55 -12 -63 -14 -132 -28 -306 -91 -458 -166 -299 -148 -555 -361 -761 -634
-17 -22 -34 -44 -38 -50 -65 -85 -183 -305 -236 -440 -34 -85 -89 -265 -102
-330 -14 -74 -26 -144 -30 -190 -3 -27 -8 -65 -11 -83 -6 -40 -6 -347 0 -382
3 -14 7 -41 10 -60 2 -19 8 -57 12 -85 37 -264 170 -600 334 -845 285 -426
719 -735 1220 -870 58 -15 125 -31 150 -35 25 -4 53 -9 64 -11 10 -2 44 -6 75
-9 31 -4 67 -8 81 -11 66 -11 374 -4 451 11 13 3 49 8 79 11 30 3 57 7 61 9 3
2 21 7 40 10 58 10 109 25 234 66 574 193 1051 639 1284 1200 71 171 132 402
147 554 3 39 8 79 10 90 5 26 5 334 0 360 -2 11 -7 49 -11 85 -4 36 -9 74 -11
85 -3 11 -7 36 -10 55 -3 19 -8 38 -10 41 -2 4 -6 24 -10 45 -22 147 -175 501
-290 674 -313 472 -786 796 -1334 914 -142 31 -177 35 -315 42 -60 3 -131 6
-158 8 -26 1 -48 2 -50 0z"/>
</g>
</svg>
